{"accessors":[{"bufferView":2,"componentType":5126,"count":22708,"max":[114.09719848632812,240.55911254882812,243.4842529296875],"min":[0,0,0],"type":"VEC3"},{"bufferView":2,"byteOffset":272496,"componentType":5126,"count":22708,"max":[0.9997161030769348,1,0.9996107220649719],"min":[-0.9994822144508362,-1,-0.9956924319267273],"type":"VEC3"},{"bufferView":1,"componentType":5126,"count":22708,"max":[0.9922999739646912,0.992900013923645],"min":[0.005200000014156103,0.005400000140070915],"type":"VEC2"},{"bufferView":0,"componentType":5125,"count":22776,"type":"SCALAR"}],"asset":{"extras":{"author":"Tiki (https://sketchfab.com/TikiYum)","license":"CC-BY-4.0 (http://creativecommons.org/licenses/by/4.0/)","source":"https://sketchfab.com/3d-models/yasuo-3rd-skin-edit-1fe98ff2e1244462ade9496848acc7ff","title":"Yasuo 3rd skin edit"},"generator":"Sketchfab-12.66.0","version":"2.0"},"bufferViews":[{"buffer":0,"byteLength":91104,"name":"floatBufferViews","target":34963},{"buffer":0,"byteLength":181664,"byteOffset":91104,"byteStride":8,"name":"floatBufferViews","target":34962},{"buffer":0,"byteLength":544992,"byteOffset":272768,"byteStride":12,"name":"floatBufferViews","target":34962}],"buffers":[{"byteLength":817760,"uri":"data:application/octet-stream;base64,"}],"images":[{"uri":"data:application/octet-stream;base64,"}],"materials":[{"doubleSided":true,"emissiveFactor":[0.5659298780487805,0.5659298780487805,0.5659298780487805],"emissiveTexture":{"index":0},"name":"Yasuo_Skin03_TX_CM_mat","pbrMetallicRoughness":{"baseColorTexture":{"index":0},"metallicFactor":0,"roughnessFactor":0.9407393292682927}}],"meshes":[{"name":"Object_0","primitives":[{"attributes":{"NORMAL":1,"POSITION":0,"TEXCOORD_0":2},"indices":3,"material":0,"mode":4}]}],"nodes":[{"children":[1],"matrix":[0.007299270015209913,0,0,0,0,1.6207635267684125e-18,-0.007299270015209913,0,0,0.007299270015209913,1.6207635267684125e-18,0,0,0,0,1],"name":"Sketchfab_model"},{"children":[2],"matrix":[1,0,0,0,0,1,0,0,0,0,1,0,-57.08497619628906,-65.63304901123047,-2.8270630836486816,1],"name":"5.obj.cleaner.gles"},{"children":[3],"name":"Object_2"},{"mesh":0,"name":"Object_3"}],"samplers":[{"magFilter":9729,"minFilter":9987,"wrapS":10497,"wrapT":10497}],"scene":0,"scenes":[{"name":"Sketchfab_Scene","nodes":[0]}],"textures":[{"sampler":0,"source":0}]}